<svg width="179" height="95" viewBox="0 0 179 95" fill="none" xmlns="http://www.w3.org/2000/svg">
<path d="M106.749 68.6709L106.421 69.0485L106.749 68.6709ZM133.312 40.2489L133.793 40.1127L133.312 40.2489ZM0.500031 72.5L3.47583 77.4475L6.27261 72.3967L0.500031 72.5ZM2.89964 74.3832C3.48587 74.6983 4.07137 75.0093 4.6561 75.3161L5.12075 74.4306C4.53898 74.1254 3.95643 73.816 3.37313 73.5024L2.89964 74.3832ZM6.408 76.2242C6.99698 76.5258 7.58515 76.8231 8.17249 77.1163L8.6191 76.2216C8.03481 75.9299 7.44968 75.6341 6.86372 75.3341L6.408 76.2242ZM9.97349 78.0035C10.5729 78.2949 11.1715 78.582 11.7691 78.8647L12.1967 77.9607C11.6023 77.6795 11.007 77.394 10.4107 77.1041L9.97349 78.0035ZM13.5591 79.7C14.1593 79.9762 14.7586 80.2481 15.3568 80.5157L15.7651 79.6028C15.1701 79.3367 14.5741 79.0663 13.9771 78.7916L13.5591 79.7ZM17.195 81.3256C17.8066 81.591 18.4172 81.852 19.0266 82.1084L19.4145 81.1867C18.8085 80.9317 18.2014 80.6722 17.5931 80.4082L17.195 81.3256ZM20.8515 82.8644C21.4645 83.1143 22.0764 83.3597 22.6871 83.6006L23.0541 82.6704C22.4469 82.4309 21.8386 82.1869 21.229 81.9384L20.8515 82.8644ZM24.5588 84.3263C25.1814 84.5636 25.8027 84.7961 26.4227 85.024L26.7677 84.0854C26.1514 83.8588 25.5338 83.6277 24.9149 83.3919L24.5588 84.3263ZM28.2784 85.6937C28.9057 85.9159 29.5316 86.1333 30.1559 86.346L30.4784 85.3994C29.8578 85.188 29.2358 84.9719 28.6123 84.7511L28.2784 85.6937ZM32.0568 86.9804C32.6889 87.187 33.3194 87.3887 33.9483 87.5856L34.2471 86.6313C33.6222 86.4356 32.9956 86.2352 32.3675 86.0299L32.0568 86.9804ZM35.8302 88.162C36.4729 88.3544 37.1138 88.5418 37.7529 88.7242L38.0273 87.7625C37.3923 87.5814 36.7556 87.3952 36.1171 87.204L35.8302 88.162ZM39.6776 89.2598C40.3173 89.4332 40.9552 89.6017 41.5912 89.7652L41.8402 88.7967C41.2085 88.6343 40.5748 88.467 39.9393 88.2946L39.6776 89.2598ZM43.5089 90.2445C44.1626 90.4033 44.8142 90.5567 45.4637 90.7049L45.6862 89.73C45.0412 89.5828 44.3941 89.4304 43.7448 89.2728L43.5089 90.2445ZM47.4059 91.1339C48.0511 91.2718 48.6942 91.4044 49.3351 91.5319L49.5302 90.5511C48.8939 90.4245 48.2554 90.2928 47.6148 90.156L47.4059 91.1339ZM51.3028 91.9085C51.9608 92.0295 52.6165 92.1451 53.2696 92.2553L53.436 91.2692C52.7877 91.1598 52.1369 91.0451 51.4836 90.925L51.3028 91.9085ZM55.2216 92.5697C55.8801 92.6707 56.536 92.7662 57.1892 92.8563L57.3258 91.8657C56.6776 91.7763 56.0268 91.6815 55.3733 91.5812L55.2216 92.5697ZM59.1762 93.1145C59.8357 93.195 60.4924 93.2699 61.1462 93.3392L61.2517 92.3448C60.6031 92.276 59.9516 92.2017 59.2973 92.1219L59.1762 93.1145ZM63.1153 93.5322C63.7858 93.5924 64.4531 93.6468 65.1172 93.6954L65.1901 92.6981C64.5316 92.6499 63.8698 92.5959 63.2049 92.5362L63.1153 93.5322ZM67.0996 93.8238C67.7602 93.861 68.4175 93.8925 69.0713 93.9182L69.1106 92.9189C68.4624 92.8935 67.8108 92.8623 67.1559 92.8254L67.0996 93.8238ZM71.0816 93.9794C71.748 93.9939 72.4107 94.0022 73.0697 94.0047L73.0735 93.0047C72.4205 93.0023 71.7637 92.994 71.1032 92.9797L71.0816 93.9794ZM75.0441 93.9942C75.7186 93.9845 76.389 93.9685 77.0552 93.9463L77.0218 92.9468C76.362 92.9688 75.6979 92.9847 75.0297 92.9943L75.0441 93.9942ZM79.0411 93.8611C79.7041 93.8262 80.3627 93.7852 81.017 93.738L80.945 92.7406C80.2973 92.7873 79.6452 92.828 78.9887 92.8624L79.0411 93.8611ZM83.0197 93.5731C83.6826 93.5117 84.3407 93.4439 84.994 93.3698L84.8812 92.3762C84.2348 92.4495 83.5836 92.5166 82.9275 92.5773L83.0197 93.5731ZM86.9683 93.1247C87.6349 93.0347 88.2961 92.938 88.9519 92.8348L88.7964 91.847C88.1479 91.9491 87.4939 92.0447 86.8345 92.1337L86.9683 93.1247ZM90.9031 92.5054C91.5648 92.3861 92.2206 92.2599 92.8706 92.127L92.6703 91.1473C92.028 91.2786 91.3797 91.4033 90.7256 91.5213L90.9031 92.5054ZM94.822 91.7039C95.4689 91.5555 96.1095 91.4002 96.7438 91.2383L96.4965 90.2694C95.8701 90.4293 95.2374 90.5826 94.5984 90.7292L94.822 91.7039ZM98.6886 90.7155C99.33 90.5341 99.9646 90.3458 100.592 90.1505L100.295 89.1956C99.6759 89.3883 99.0497 89.5742 98.4165 89.7532L98.6886 90.7155ZM102.493 89.5307C103.129 89.3138 103.757 89.0897 104.377 88.8584L104.028 87.9214C103.417 88.1494 102.797 88.3704 102.17 88.5843L102.493 89.5307ZM106.225 88.139C106.851 87.8845 107.469 87.6225 108.078 87.3532L107.674 86.4386C107.074 86.7038 106.465 86.9618 105.848 87.2125L106.225 88.139ZM109.88 86.523C110.489 86.2308 111.088 85.9309 111.678 85.6236L111.216 84.7367C110.636 85.0389 110.046 85.3339 109.447 85.6214L109.88 86.523ZM113.431 84.6727C114.016 84.3421 114.591 84.0039 115.156 83.658L114.634 82.8052C114.079 83.1448 113.514 83.4771 112.939 83.802L113.431 84.6727ZM116.844 82.5813C117.403 82.2104 117.95 81.8318 118.486 81.4455L117.901 80.6343C117.376 81.013 116.839 81.3844 116.291 81.7483L116.844 82.5813ZM120.092 80.2389C120.619 79.826 121.133 79.4052 121.636 78.9768L120.987 78.2159C120.495 78.6352 119.991 79.0472 119.475 79.4517L120.092 80.2389ZM123.138 77.6381C123.628 77.1818 124.105 76.7177 124.568 76.2459L123.854 75.5455C123.402 76.0064 122.936 76.46 122.457 76.9062L123.138 77.6381ZM125.944 74.7757C126.391 74.2758 126.822 73.7681 127.239 73.2529L126.461 72.6241C126.055 73.1265 125.634 73.6218 125.198 74.1098L125.944 74.7757ZM128.465 71.6553C128.86 71.113 129.239 70.5632 129.601 70.006L128.763 69.4606C128.41 70.003 128.041 70.5385 127.657 71.0668L128.465 71.6553ZM130.653 68.2896C130.988 67.7083 131.306 67.1197 131.607 66.5241L130.714 66.0737C130.422 66.6526 130.113 67.225 129.787 67.7904L130.653 68.2896ZM132.462 64.7029C132.729 64.0881 132.979 63.4666 133.21 62.8385L132.272 62.4929C132.047 63.1029 131.805 63.7066 131.545 64.3038L132.462 64.7029ZM133.85 60.9314C134.044 60.291 134.22 59.6444 134.377 58.992L133.404 58.7583C133.252 59.3917 133.082 60.0194 132.893 60.6412L133.85 60.9314ZM134.789 57.0226C134.907 56.3658 135.006 55.7036 135.085 55.0363L134.092 54.9176C134.015 55.5657 133.919 56.2087 133.805 56.8464L134.789 57.0226ZM135.267 53.0311C135.307 52.3676 135.33 51.6995 135.333 51.027L134.333 51.0219C134.33 51.6757 134.308 52.3251 134.268 52.9698L135.267 53.0311ZM135.287 49.0133C135.254 48.3517 135.203 47.6862 135.133 47.0172L134.139 47.1205C134.206 47.7719 134.256 48.4197 134.289 49.0634L135.287 49.0133ZM134.874 45.0209C134.771 44.3679 134.652 43.7118 134.515 43.0528L133.536 43.2561C133.67 43.8991 133.786 44.5389 133.886 45.1755L134.874 45.0209ZM134.06 41.0965C133.975 40.7692 133.886 40.4412 133.793 40.1127L132.831 40.3851C132.922 40.7062 133.009 41.0266 133.091 41.3463L134.06 41.0965ZM133.793 40.1127C133.696 39.7673 133.591 39.4287 133.478 39.0968L132.531 39.4173C132.638 39.733 132.738 40.0556 132.831 40.3851L133.793 40.1127ZM132.713 37.1691C132.417 36.5239 132.091 35.909 131.737 35.3241L130.881 35.8412C131.215 36.3937 131.524 36.9753 131.805 37.5867L132.713 37.1691ZM130.549 33.5958C130.115 33.0387 129.652 32.5153 129.166 32.0252L128.456 32.7299C128.915 33.1919 129.351 33.6852 129.76 34.2105L130.549 33.5958ZM127.606 30.6325C127.058 30.1982 126.487 29.7984 125.896 29.4324L125.369 30.2824C125.928 30.6288 126.468 31.0066 126.985 31.4164L127.606 30.6325ZM124.063 28.4322C123.436 28.1328 122.793 27.8664 122.137 27.6322L121.801 28.5739C122.426 28.797 123.037 29.0504 123.632 29.3346L124.063 28.4322ZM120.144 27.028C119.474 26.8591 118.794 26.7208 118.108 26.6121L117.952 27.5998C118.609 27.7039 119.26 27.8363 119.9 27.9977L120.144 27.028ZM116.045 26.3755C115.357 26.3257 114.664 26.3043 113.971 26.3103L113.98 27.3103C114.647 27.3045 115.312 27.3251 115.973 27.3729L116.045 26.3755ZM111.899 26.41C111.211 26.47 110.524 26.5567 109.842 26.6693L110.005 27.656C110.662 27.5475 111.323 27.464 111.986 27.4062L111.899 26.41ZM107.812 27.0848C107.139 27.2495 106.473 27.4398 105.818 27.6551L106.131 28.6051C106.761 28.398 107.402 28.2147 108.05 28.0561L107.812 27.0848ZM103.874 28.3808C103.232 28.65 102.604 28.9443 101.993 29.2632L102.456 30.1498C103.042 29.8441 103.644 29.5615 104.261 29.3029L103.874 28.3808ZM100.194 30.3049C99.6061 30.6813 99.039 31.0828 98.4957 31.5087L99.1127 32.2957C99.6302 31.89 100.171 31.5068 100.733 31.147L100.194 30.3049ZM96.9228 32.8768C96.4198 33.3627 95.9454 33.8737 95.5031 34.4089L96.274 35.0459C96.6916 34.5405 97.1405 34.0569 97.6176 33.596L96.9228 32.8768ZM94.2683 36.0997C93.8915 36.6881 93.5514 37.3003 93.2516 37.9355L94.156 38.3623C94.4369 37.7669 94.7562 37.1922 95.1105 36.6389L94.2683 36.0997ZM92.484 39.889C92.2749 40.5477 92.1074 41.2266 91.9848 41.9251L92.9697 42.0979C93.0845 41.4437 93.2414 40.8081 93.4371 40.1917L92.484 39.889ZM91.7584 44.0049C91.7282 44.686 91.7394 45.3825 91.7944 46.0938L92.7915 46.0167C92.7395 45.3451 92.7291 44.6891 92.7574 44.0491L91.7584 44.0049ZM92.0733 48.1681C92.2006 48.8361 92.3655 49.5154 92.5697 50.2054L93.5286 49.9216C93.3335 49.2624 93.1765 48.6154 93.0557 47.981L92.0733 48.1681ZM93.2381 52.1452C93.4833 52.77 93.7602 53.4028 94.0701 54.0432L94.9703 53.6077C94.6711 52.9894 94.4045 52.38 94.1689 51.7799L93.2381 52.1452ZM95.0435 55.8891C95.3701 56.4617 95.7227 57.0399 96.1023 57.6237L96.9407 57.0787C96.5713 56.5106 96.2288 55.9488 95.9121 55.3936L95.0435 55.8891ZM97.2939 59.3527C97.6791 59.8817 98.0862 60.4149 98.5158 60.9523L99.2969 60.3278C98.8764 59.8018 98.4784 59.2805 98.1023 58.7641L97.2939 59.3527ZM99.8598 62.5618C100.289 63.0547 100.737 63.5509 101.204 64.0502L101.934 63.3671C101.475 62.8762 101.035 62.3889 100.614 61.9053L99.8598 62.5618ZM102.664 65.5578C103.126 66.0195 103.604 66.4838 104.1 66.9506L104.786 66.2228C104.297 65.7625 103.826 65.305 103.37 64.8503L102.664 65.5578ZM105.622 68.3456C105.884 68.5793 106.151 68.8136 106.421 69.0485L107.077 68.2934C106.81 68.0613 106.547 67.8299 106.288 67.5992L105.622 68.3456ZM106.421 69.0485C106.684 69.2765 106.946 69.5008 107.208 69.7213L107.852 68.9561C107.594 68.7389 107.336 68.518 107.077 68.2934L106.421 69.0485ZM108.779 71.0008C109.302 71.4126 109.824 71.8099 110.345 72.1929L110.938 71.3871C110.426 71.0109 109.912 70.6203 109.398 70.2152L108.779 71.0008ZM112.005 73.3667C112.567 73.7483 113.127 74.1134 113.687 74.4622L114.216 73.6138C113.668 73.2719 113.118 72.9139 112.567 72.5395L112.005 73.3667ZM115.394 75.4795C115.993 75.8196 116.591 76.1413 117.186 76.4448L117.64 75.5538C117.058 75.2572 116.474 74.9427 115.888 74.6099L115.394 75.4795ZM118.969 77.3015C119.598 77.586 120.226 77.8504 120.851 78.0952L121.216 77.164C120.607 76.9255 119.995 76.6678 119.381 76.3902L118.969 77.3015ZM122.73 78.7738C123.38 78.9892 124.027 79.1835 124.672 79.3571L124.932 78.3915C124.306 78.2229 123.677 78.034 123.044 77.8246L122.73 78.7738ZM126.626 79.8225C127.294 79.9607 127.959 80.0769 128.62 80.1718L128.762 79.1819C128.121 79.09 127.477 78.9773 126.829 78.8432L126.626 79.8225ZM130.621 80.3947C131.299 80.4485 131.973 80.4799 132.643 80.4895L132.657 79.4896C132.009 79.4803 131.357 79.45 130.701 79.3979L130.621 80.3947ZM134.659 80.4526C135.335 80.418 136.008 80.3613 136.675 80.283L136.558 79.2898C135.913 79.3655 135.262 79.4204 134.608 79.4539L134.659 80.4526ZM138.67 79.9832C139.334 79.8613 139.992 79.7182 140.645 79.5547L140.402 78.5847C139.77 78.7431 139.132 78.8816 138.489 78.9996L138.67 79.9832ZM142.588 79.0031C143.228 78.7998 143.862 78.5769 144.49 78.3351L144.131 77.4019C143.521 77.6366 142.906 77.8529 142.285 78.05L142.588 79.0031ZM146.354 77.5549C146.963 77.279 147.566 76.9852 148.163 76.6744L147.701 75.7875C147.12 76.09 146.534 76.3757 145.941 76.644L146.354 77.5549ZM149.928 75.6951C150.503 75.3561 151.071 75.0013 151.633 74.6313L151.083 73.7962C150.535 74.1573 149.98 74.5033 149.42 74.8337L149.928 75.6951ZM153.29 73.4829C153.828 73.0904 154.36 72.6839 154.886 72.2641L154.261 71.483C153.747 71.8937 153.227 72.2911 152.701 72.6747L153.29 73.4829ZM156.431 70.9736C156.933 70.5362 157.428 70.0864 157.916 69.625L157.229 68.8982C156.751 69.3506 156.265 69.7913 155.774 70.2198L156.431 70.9736ZM159.351 68.2155C159.817 67.7403 160.276 67.2545 160.727 66.7585L159.988 66.085C159.544 66.5722 159.094 67.0493 158.637 67.5156L159.351 68.2155ZM162.055 65.2488C162.485 64.742 162.909 64.2258 163.325 63.701L162.542 63.0795C162.132 63.5958 161.716 64.1033 161.293 64.6016L162.055 65.2488ZM164.548 62.1065C164.945 61.5727 165.334 61.031 165.716 60.4818L164.895 59.9108C164.519 60.4517 164.135 60.9851 163.745 61.5105L164.548 62.1065ZM166.838 58.8152C167.201 58.2583 167.557 57.6947 167.905 57.1247L167.052 56.603C166.709 57.1648 166.358 57.7203 166 58.269L166.838 58.8152ZM168.929 55.3966C169.26 54.8197 169.583 54.237 169.899 53.6491L169.019 53.1756C168.707 53.7556 168.388 54.3303 168.062 54.8992L168.929 55.3966ZM170.825 51.87C171.124 51.2748 171.416 50.675 171.701 50.0708L170.796 49.6451C170.515 50.2413 170.227 50.8332 169.932 51.4204L170.825 51.87ZM172.53 48.2472C172.798 47.6361 173.058 47.0213 173.31 46.4031L172.385 46.0252C172.135 46.6354 171.879 47.2422 171.614 47.8453L172.53 48.2472ZM174.043 44.54C174.28 43.9153 174.508 43.2877 174.728 42.6577L173.784 42.3279C173.567 42.9499 173.341 43.5694 173.108 44.186L174.043 44.54ZM175.364 40.7591C175.568 40.1228 175.763 39.4844 175.95 38.8445L174.99 38.5641C174.806 39.1957 174.613 39.8257 174.412 40.4539L175.364 40.7591ZM176.487 36.9142C176.657 36.268 176.819 35.6208 176.971 34.9729L175.998 34.7436C175.847 35.3828 175.688 36.0215 175.52 36.6591L176.487 36.9142ZM177.405 33.0144C177.54 32.3602 177.666 31.7058 177.783 31.0518L176.798 30.8763C176.684 31.5211 176.559 32.1664 176.426 32.8116L177.405 33.0144ZM178.108 29.069C178.206 28.4085 178.294 27.7488 178.373 27.0904L177.38 26.972C177.303 27.6206 177.215 28.2706 177.118 28.9216L178.108 29.069ZM178.581 25.0881C178.64 24.4224 178.688 23.7586 178.726 23.0972L177.727 23.0405C177.69 23.6912 177.643 24.3446 177.585 25.0001L178.581 25.0881ZM178.807 21.0835C178.823 20.4146 178.827 19.7488 178.82 19.0866L177.82 19.0972C177.827 19.7478 177.823 20.4022 177.807 21.0598L178.807 21.0835ZM178.762 17.07C178.731 16.4011 178.687 15.7364 178.631 15.0767L177.635 15.1617C177.69 15.8084 177.733 16.4604 177.764 17.117L178.762 17.07ZM178.419 13.0676C178.335 12.4024 178.238 11.743 178.127 11.0901L177.141 11.2577C177.249 11.8962 177.345 12.5415 177.427 13.1929L178.419 13.0676ZM177.742 9.10354C177.599 8.44639 177.442 7.7968 177.269 7.1555L176.304 7.41522C176.472 8.04053 176.626 8.6744 176.765 9.31617L177.742 9.10354ZM176.694 5.21651C176.485 4.57501 176.26 3.94304 176.019 3.32138L175.086 3.68318C175.321 4.2872 175.54 4.90179 175.743 5.52621L176.694 5.21651ZM175.233 1.45955C175.093 1.15485 174.949 0.853004 174.801 0.554134L173.905 0.998152C174.049 1.28773 174.188 1.58033 174.323 1.87584L175.233 1.45955Z" fill="white"/>
</svg>
